<svg width="33" height="33" viewBox="0 0 33 33" fill="none" xmlns="http://www.w3.org/2000/svg">
<path d="M16.4844 0C19.0414 0 21.4611 0.582527 23.6232 1.62155C22.7382 2.32171 21.9176 2.99385 21.153 3.64079C19.6967 3.11148 18.1256 2.82302 16.4872 2.82302C12.7148 2.82302 9.29803 4.35215 6.82789 6.82509C4.35495 9.29803 2.82582 12.712 2.82582 16.4844C2.82582 20.2568 4.35495 23.6708 6.82789 26.1437C9.30083 28.6166 12.7148 30.1458 16.4872 30.1458C20.2596 30.1458 23.6764 28.6166 26.1465 26.1437C28.6194 23.6708 30.1486 20.2568 30.1486 16.4844C30.1486 15.5882 30.0618 14.7088 29.8965 13.8602C30.6051 12.936 31.3304 12.0146 32.0726 11.1016C32.6551 12.7876 32.9716 14.5996 32.9716 16.4844C32.9716 21.0354 31.126 25.1579 28.1433 28.1405C25.1607 31.1232 21.0382 32.9688 16.4872 32.9688C11.9362 32.9688 7.81371 31.1232 4.83105 28.1405C1.8456 25.1579 0 21.0354 0 16.4844C0 11.9334 1.8456 7.8109 4.82825 4.82825C7.8109 1.8456 11.9334 0 16.4844 0ZM8.80512 13.7762L12.8268 13.723L13.1265 13.8014C13.9386 14.2691 14.7032 14.804 15.4174 15.409C15.9327 15.8459 16.4256 16.322 16.8933 16.8373C18.3356 14.5156 19.8731 12.3843 21.4975 10.4239C23.2759 8.27581 25.1635 6.32658 27.1463 4.54819L27.5384 4.39696H31.927L31.042 5.37997C28.3226 8.40183 25.8552 11.5245 23.626 14.7452C21.3967 17.9687 19.4026 21.2958 17.6298 24.721L17.0781 25.7852L16.5712 24.7014C15.6358 22.6933 14.5156 20.8505 13.1797 19.2038C11.8438 17.557 10.2894 16.0951 8.47745 14.8516L8.80512 13.7762Z" fill="#01A601"/>
</svg>
