<svg width="20" height="20" viewBox="0 0 24 24" fill="none" xmlns="http://www.w3.org/2000/svg">
  <path d="M14.5 4C15.2 6.7 13 8 13 9.8C13 11.2 14.1 12 15.3 12C16.8 12 18 10.7 18 9.2C20 11 21 13.2 21 15.5C21 19.1 17.9 22 14 22C10.1 22 7 19.1 7 15.5C7 11.7 9.6 9.4 12 7.2C13.1 6.2 14 5.3 14.5 4Z" stroke="#1F78D1" stroke-width="1.8" stroke-linejoin="round"/>
  <path d="M12.2 13.5C12.7 14.4 12 15 12 15.8C12 16.6 12.6 17.2 13.4 17.2C14.2 17.2 14.8 16.6 14.8 15.8C14.8 14.7 14.2 13.9 13 13.2C12.6 13.4 12.4 13.5 12.2 13.5Z" stroke="#1F78D1" stroke-width="1.8" stroke-linejoin="round"/>
</svg>
