<svg width="33" height="39" viewBox="0 0 33 39" fill="none" xmlns="http://www.w3.org/2000/svg">
<g clip-path="url(#clip0_48_406)">
<path fill-rule="evenodd" clip-rule="evenodd" d="M17.4977 0.757531C19.7621 2.24262 22.2038 3.43792 24.7657 4.31544C26.6666 4.97664 28.6812 5.248 30.6893 5.11333L32.7725 4.92395L32.875 7.01647C33.2568 14.7129 32.015 21.4002 29.4102 26.6781C26.6999 32.164 22.5334 36.1286 17.1841 38.1435H15.7933C10.562 36.2342 6.4297 32.3782 3.6852 26.8209C1.12698 21.602 -0.18938 14.865 0.0217349 6.83019L0.0745137 4.76561L2.12978 4.87117C4.36376 5.01611 6.60624 4.7863 8.76438 4.19126C11.101 3.51019 13.2827 2.38084 15.1879 0.866193L16.3024 0L17.4977 0.757531Z" fill="#333333"/>
<path fill-rule="evenodd" clip-rule="evenodd" d="M16.4205 2.45581C21.8164 5.87091 26.6875 7.49153 30.8726 7.11276C31.6022 21.8877 26.1473 32.6266 16.4764 36.2653C7.14075 32.8564 1.61761 22.4931 2.02742 6.88612C6.93585 7.1407 11.7542 6.08202 16.4205 2.45581Z" fill="white"/>
<path fill-rule="evenodd" clip-rule="evenodd" d="M16.4298 5.06372C20.9222 7.91067 24.9799 9.25808 28.4633 8.94141C29.0842 21.2451 24.5266 30.6211 16.4763 33.6543C8.69302 30.8167 4.09816 21.7511 4.43967 8.75513C8.52847 8.96935 12.5428 8.08453 16.4298 5.06372Z" fill="#3AAF3C"/>
<path fill-rule="evenodd" clip-rule="evenodd" d="M11.5275 15.4393H12.4185V14.8184C12.4155 13.7148 12.8407 12.6531 13.6045 11.8565C13.9732 11.4637 14.4186 11.1506 14.913 10.9365C15.4075 10.7225 15.9406 10.6121 16.4794 10.6121C17.0182 10.6121 17.5513 10.7225 18.0457 10.9365C18.5402 11.1506 18.9855 11.4637 19.3543 11.8565C20.117 12.6538 20.5419 13.715 20.5403 14.8184V15.4393H21.422C21.5976 15.4393 21.7662 15.5089 21.8907 15.6328C22.0152 15.7567 22.0855 15.9249 22.0864 16.1006V24.4552C22.0855 24.6308 22.0152 24.799 21.8907 24.9229C21.7662 25.0469 21.5976 25.1164 21.422 25.1164H11.5275C11.3521 25.1164 11.1839 25.0468 11.0599 24.9228C10.9359 24.7987 10.8662 24.6305 10.8662 24.4552V16.1006C10.8662 16.0137 10.8833 15.9278 10.9165 15.8475C10.9498 15.7673 10.9985 15.6944 11.0599 15.633C11.1213 15.5716 11.1942 15.5229 11.2744 15.4896C11.3547 15.4564 11.4407 15.4393 11.5275 15.4393ZM15.1382 20.1459C15.305 20.2857 15.4617 20.4372 15.607 20.5992C16.0501 19.89 16.5407 19.2117 17.0755 18.5688C18.5284 16.8115 17.8703 17.1499 19.8883 17.1499L19.6058 17.4604C18.9217 18.239 18.2989 19.0694 17.743 19.9441C17.0412 20.9524 16.4035 22.0039 15.8336 23.0922L15.6598 23.4306L15.4983 23.086C15.2127 22.4647 14.8519 21.8809 14.4241 21.3474C14.038 20.8632 13.5768 20.4439 13.0581 20.1056C13.322 19.2425 14.5731 19.6833 15.132 20.1583L15.1382 20.1459ZM13.6604 15.4393H19.2767V14.8184C19.2786 14.0408 18.9806 13.2924 18.4446 12.729C18.1921 12.4578 17.8865 12.2415 17.5468 12.0937C17.2071 11.9458 16.8406 11.8695 16.4701 11.8695C16.0996 11.8695 15.733 11.9458 15.3933 12.0937C15.0536 12.2415 14.748 12.4578 14.4955 12.729C13.9577 13.2927 13.6585 14.0424 13.6604 14.8215V15.4424V15.4393Z" fill="white"/>
</g>
<defs>
<clipPath id="clip0_48_406">
<rect width="32.9433" height="38.1497" fill="white"/>
</clipPath>
</defs>
</svg>
