<svg width="25" height="24" viewBox="0 0 25 24" fill="none" xmlns="http://www.w3.org/2000/svg">
<g clip-path="url(#clip0_47_482)">
<path d="M13.1062 0.409871L16.3024 7.93165L24.414 8.66128C24.5421 8.67185 24.6642 8.72038 24.765 8.80074C24.8657 8.8811 24.9406 8.98971 24.9802 9.11288C25.0198 9.23605 25.0223 9.36826 24.9875 9.49287C24.9526 9.61748 24.8819 9.72891 24.7843 9.81312L18.6441 15.2034L20.4548 23.1965C20.4738 23.2805 20.476 23.3675 20.4615 23.4523C20.447 23.5372 20.4159 23.6183 20.3702 23.6911C20.3244 23.7638 20.2649 23.8268 20.1949 23.8762C20.1249 23.9257 20.046 23.9608 19.9625 23.9795C19.7899 24.0161 19.6098 23.9822 19.462 23.8852L12.4938 19.6959L5.50734 23.9057C5.43435 23.9503 5.35333 23.9799 5.26894 23.9928C5.18454 24.0057 5.09845 24.0016 5.01562 23.9809C4.93278 23.9601 4.85485 23.923 4.7863 23.8718C4.71776 23.8205 4.65995 23.7561 4.61623 23.6823C4.57243 23.61 4.54323 23.5297 4.53031 23.446C4.5174 23.3622 4.52101 23.2768 4.54095 23.1945L6.35369 15.2013L0.221694 9.81312C0.0928032 9.69791 0.0138156 9.53644 0.00164703 9.36329C-0.0105215 9.19014 0.0450964 9.01908 0.15659 8.88673C0.279469 8.7599 0.446622 8.68636 0.622492 8.68178L8.70355 7.95214L11.8998 0.409871C11.9513 0.291988 12.0358 0.191755 12.1429 0.121386C12.25 0.051017 12.3751 0.0135498 12.503 0.0135498C12.6309 0.0135498 12.756 0.051017 12.8631 0.121386C12.9702 0.191755 13.0547 0.291988 13.1062 0.409871Z" fill="#FFD401"/>
</g>
<defs>
<clipPath id="clip0_47_482">
<rect width="25" height="24" fill="white"/>
</clipPath>
</defs>
</svg>
